<svg width="124" height="123" viewBox="0 0 124 123" fill="none" xmlns="http://www.w3.org/2000/svg">
<path d="M123.359 61.3591C123.359 95.2468 95.8877 122.718 62 122.718C28.1123 122.718 0.6409 95.2468 0.6409 61.3591C0.6409 27.4714 28.1123 0 62 0C95.8877 0 123.359 27.4714 123.359 61.3591Z" fill="url(#paint0_linear_10:160)"/>
<path d="M123.359 61.3591C123.359 95.2468 95.8877 122.718 62 122.718C28.1123 122.718 0.6409 95.2468 0.6409 61.3591C0.6409 27.4714 28.1123 0 62 0C95.8877 0 123.359 27.4714 123.359 61.3591Z" fill="url(#paint1_linear_10:160)"/>
<path d="M61.9366 35.3784C61.5217 35.3962 61.1231 35.5222 60.7947 35.7393C54.7176 39.71 47.0916 43.2756 38.3377 45.8611C37.9363 45.978 37.5879 46.1992 37.3414 46.4937C37.0949 46.7882 36.9627 47.1411 36.9633 47.503C36.9633 59.7648 38.6615 67.3376 42.6515 73.0692C46.6415 78.8008 52.7219 82.4209 60.8582 87.0521C61.1904 87.2402 61.5802 87.3406 61.9789 87.3408H62.0212C62.4199 87.3406 62.8097 87.2402 63.1419 87.0521C71.2781 82.4209 77.3586 78.8008 81.3485 73.0692C85.3385 67.3376 87.0368 59.7648 87.0368 47.503C87.0374 47.1411 86.9052 46.7882 86.6586 46.4937C86.4121 46.1992 86.0637 45.978 85.6623 45.8611C76.9103 43.2761 69.3282 39.7123 63.2476 35.7393C62.8733 35.4923 62.4095 35.3647 61.9366 35.3784V35.3784ZM62.0212 39.2215C67.8916 42.9004 74.9292 46.1812 82.9345 48.6758C82.8172 59.874 81.1801 66.531 77.8595 71.301C74.5829 76.0079 69.4483 79.2674 62 83.5339C54.5517 79.2674 49.4172 76.0079 46.1406 71.301C42.82 66.531 41.1829 59.874 41.0656 48.6758C49.0761 46.1811 56.1423 42.9035 62.0212 39.2215ZM61.9789 51.5084C61.9081 51.5113 61.8375 51.5173 61.7674 51.5265C61.2666 51.5757 60.8053 51.7822 60.473 52.1057C60.1408 52.4292 59.9615 52.8465 59.97 53.2766V59.6276H52.5267C52.4562 59.6244 52.3856 59.6244 52.3152 59.6276C52.0486 59.6394 51.7873 59.6959 51.5463 59.7938C51.3053 59.8918 51.0892 60.0293 50.9105 60.1986C50.7318 60.3678 50.5939 60.5654 50.5047 60.7801C50.4155 60.9948 50.3767 61.2224 50.3906 61.4499C50.4045 61.6773 50.4707 61.9003 50.5856 62.1059C50.7005 62.3115 50.8617 62.4958 51.06 62.6483C51.2584 62.8008 51.49 62.9184 51.7417 62.9945C51.9933 63.0706 52.26 63.1036 52.5267 63.0917H59.97V69.4427C59.9662 69.6722 60.0159 69.9001 60.1162 70.1131C60.2165 70.3261 60.3655 70.5199 60.5543 70.6834C60.7432 70.8468 60.9683 70.9766 61.2165 71.0652C61.4647 71.1538 61.731 71.1994 62 71.1994C62.2691 71.1994 62.5354 71.1538 62.7836 71.0652C63.0318 70.9766 63.2568 70.8468 63.4457 70.6834C63.6346 70.5199 63.7835 70.3261 63.8838 70.1131C63.9841 69.9001 64.0338 69.6722 64.03 69.4427V63.0917H71.4734C71.7424 63.095 72.0095 63.0526 72.2591 62.967C72.5087 62.8814 72.7359 62.7543 72.9275 62.5931C73.1191 62.432 73.2712 62.24 73.375 62.0282C73.4789 61.8164 73.5323 61.5892 73.5323 61.3596C73.5323 61.1301 73.4789 60.9028 73.375 60.6911C73.2712 60.4793 73.1191 60.2873 72.9275 60.1261C72.7359 59.965 72.5087 59.8379 72.2591 59.7523C72.0095 59.6667 71.7424 59.6243 71.4734 59.6276H64.03V53.2766C64.0357 53.0446 63.9867 52.814 63.8858 52.5985C63.785 52.383 63.6345 52.1869 63.4432 52.022C63.2519 51.8571 63.0237 51.7266 62.7721 51.6384C62.5206 51.5502 62.2508 51.506 61.9789 51.5084V51.5084Z" fill="#35ABEA"/>
<defs>
<linearGradient id="paint0_linear_10:160" x1="-130.696" y1="220.057" x2="130.144" y2="-8.50601" gradientUnits="userSpaceOnUse">
<stop offset="0.170227" stop-color="#57A3D1" stop-opacity="0.5"/>
<stop offset="1" stop-color="#C4C4C4" stop-opacity="0"/>
</linearGradient>
<linearGradient id="paint1_linear_10:160" x1="-130.696" y1="220.057" x2="130.144" y2="-8.50601" gradientUnits="userSpaceOnUse">
<stop offset="0.170227" stop-color="#57A3D1" stop-opacity="0.5"/>
<stop offset="1" stop-color="#C4C4C4" stop-opacity="0"/>
</linearGradient>
</defs>
</svg>
