<svg width="17" height="17" viewBox="0 0 17 17" fill="none" xmlns="http://www.w3.org/2000/svg">
<path d="M7.46477 0.546697C8.34956 0.538224 9.20325 0.687912 10.023 0.998585C10.8795 1.31773 11.6428 1.78374 12.3127 2.39661C12.9827 3.02643 13.5056 3.75228 13.8816 4.57132C14.2576 5.3819 14.4696 6.21789 14.5176 7.08495C14.5742 7.96896 14.4667 8.82754 14.1925 9.65506C13.9014 10.5306 13.4576 11.3129 12.864 11.9992L16.5105 15.6426C16.6038 15.7358 16.6519 15.8629 16.6519 16.0239C16.6519 16.1651 16.6038 16.2865 16.5105 16.391C16.4059 16.4955 16.2844 16.5464 16.143 16.5464C15.9819 16.5464 15.8519 16.4983 15.7473 16.4051L12.1148 12.7477C11.4082 13.3492 10.6251 13.7927 9.76861 14.0751C8.94036 14.3491 8.08101 14.4564 7.19623 14.3999C6.31144 14.3519 5.47188 14.1457 4.68038 13.7785C3.86061 13.4029 3.13412 12.8748 2.50375 12.1969C1.87337 11.5276 1.40695 10.765 1.10448 9.90925C0.793535 9.0902 0.643715 8.23727 0.652196 7.35326C0.671983 6.46925 0.855725 5.62479 1.20342 4.82551C1.54264 3.97822 2.04298 3.23543 2.70162 2.59431C3.34331 1.93625 4.0811 1.43635 4.92066 1.09744C5.73195 0.758519 6.57998 0.57494 7.46477 0.546697ZM9.88168 2.11418C9.1665 1.81198 8.41175 1.6623 7.62025 1.6623C6.82874 1.6623 6.06551 1.81198 5.33054 2.11418C4.64363 2.41638 4.02456 2.84003 3.47899 3.38512C2.9419 3.92174 2.52353 4.53461 2.22107 5.22091C1.9186 5.95523 1.76878 6.71779 1.76878 7.5086C1.76878 8.2994 1.9186 9.05631 2.22107 9.78216C2.52353 10.4798 2.9419 11.1011 3.47899 11.6462C4.02456 12.1828 4.64363 12.6008 5.33054 12.903C6.06551 13.2052 6.82874 13.3549 7.62025 13.3549C8.41175 13.3549 9.1665 13.1996 9.88168 12.8889C10.5884 12.598 11.2103 12.1828 11.7474 11.6462C12.2929 11.1011 12.7141 10.4798 13.0053 9.78216C13.3162 9.05631 13.4717 8.2994 13.4717 7.5086C13.4717 6.71779 13.3219 5.95523 13.0194 5.22091C12.717 4.53461 12.2929 3.92174 11.7474 3.38512C11.2103 2.84003 10.5884 2.41638 9.88168 2.11418Z" fill="#1A76DC"/>
</svg>
